<svg xmlns="http://www.w3.org/2000/svg" xmlns:xlink="http://www.w3.org/1999/xlink" width="500" zoomAndPan="magnify" viewBox="0 0 375 374.999991" height="500" preserveAspectRatio="xMidYMid meet" version="1.0"><defs><g/><clipPath id="ea7ff65b76"><path d="M 21.082031 54.679688 L 217 54.679688 L 217 320.179688 L 21.082031 320.179688 Z M 21.082031 54.679688 " clip-rule="nonzero"/></clipPath><clipPath id="316a1223d3"><path d="M 95 160.472656 L 136 160.472656 L 136 201.722656 L 95 201.722656 Z M 95 160.472656 " clip-rule="nonzero"/></clipPath><clipPath id="ddb6fa67ef"><path d="M 95 160.480469 L 136.234375 160.480469 L 136.234375 201.71875 L 95 201.71875 Z M 95 160.480469 " clip-rule="nonzero"/></clipPath><clipPath id="e6f0f23a01"><path d="M 127 158 L 135 158 L 135 167 L 127 167 Z M 127 158 " clip-rule="nonzero"/></clipPath><clipPath id="6f904f5612"><path d="M 127.898438 164.738281 L 133.207031 158.421875 L 134.929688 159.871094 L 129.621094 166.183594 Z M 127.898438 164.738281 " clip-rule="nonzero"/></clipPath><clipPath id="049e53bd92"><path d="M 127.898438 164.738281 L 133.691406 157.847656 L 135.414062 159.296875 L 129.621094 166.183594 Z M 127.898438 164.738281 " clip-rule="nonzero"/></clipPath><clipPath id="3f0f867814"><path d="M 127.898438 164.738281 L 143.828125 145.792969 L 145.546875 147.242188 L 129.621094 166.183594 Z M 127.898438 164.738281 " clip-rule="nonzero"/></clipPath><clipPath id="f3c253b73c"><path d="M 122 154 L 128 154 L 128 163 L 122 163 Z M 122 154 " clip-rule="nonzero"/></clipPath><clipPath id="e07c230423"><path d="M 122.5 161.984375 L 124.984375 154.117188 L 127.132812 154.792969 L 124.648438 162.660156 Z M 122.5 161.984375 " clip-rule="nonzero"/></clipPath><clipPath id="5c57cc86d8"><path d="M 122.5 161.984375 L 125.210938 153.402344 L 127.359375 154.078125 L 124.648438 162.660156 Z M 122.5 161.984375 " clip-rule="nonzero"/></clipPath><clipPath id="07274c02fe"><path d="M 122.5 161.984375 L 129.957031 138.382812 L 132.101562 139.058594 L 124.648438 162.660156 Z M 122.5 161.984375 " clip-rule="nonzero"/></clipPath><clipPath id="bdec7f98ae"><path d="M 116.636719 152.835938 L 118.886719 152.835938 L 118.886719 161.085938 L 116.636719 161.085938 Z M 116.636719 152.835938 " clip-rule="nonzero"/></clipPath><clipPath id="67b595b9e0"><path d="M 107 153 L 113 153 L 113 163 L 107 163 Z M 107 153 " clip-rule="nonzero"/></clipPath><clipPath id="0d595ebfc3"><path d="M 109.910156 162.140625 L 107.0625 154.398438 L 109.171875 153.621094 L 112.023438 161.363281 Z M 109.910156 162.140625 " clip-rule="nonzero"/></clipPath><clipPath id="abb900dd4b"><path d="M 109.910156 162.140625 L 106.800781 153.695312 L 108.914062 152.917969 L 112.023438 161.363281 Z M 109.910156 162.140625 " clip-rule="nonzero"/></clipPath><clipPath id="698da21829"><path d="M 109.910156 162.140625 L 101.363281 138.914062 L 103.472656 138.136719 L 112.023438 161.363281 Z M 109.910156 162.140625 " clip-rule="nonzero"/></clipPath><clipPath id="070bd89e78"><path d="M 99 157 L 107 157 L 107 165 L 99 165 Z M 99 157 " clip-rule="nonzero"/></clipPath><clipPath id="3bf94beca6"><path d="M 104.484375 165 L 99.261719 158.613281 L 101.003906 157.1875 L 106.226562 163.574219 Z M 104.484375 165 " clip-rule="nonzero"/></clipPath><clipPath id="297c770a83"><path d="M 104.484375 165 L 98.785156 158.03125 L 100.527344 156.609375 L 106.226562 163.574219 Z M 104.484375 165 " clip-rule="nonzero"/></clipPath><clipPath id="6f4b67399c"><path d="M 104.484375 165 L 88.816406 145.839844 L 90.558594 144.414062 L 106.226562 163.574219 Z M 104.484375 165 " clip-rule="nonzero"/></clipPath><clipPath id="095828550a"><path d="M 252 160.472656 L 293.542969 160.472656 L 293.542969 201.722656 L 252 201.722656 Z M 252 160.472656 " clip-rule="nonzero"/></clipPath><clipPath id="dea3b6fdea"><path d="M 252.222656 160.480469 L 293.539062 160.480469 L 293.539062 201.71875 L 252.222656 201.71875 Z M 252.222656 160.480469 " clip-rule="nonzero"/></clipPath><clipPath id="0e7067630f"><path d="M 285 158 L 293 158 L 293 167 L 285 167 Z M 285 158 " clip-rule="nonzero"/></clipPath><clipPath id="55727b6a32"><path d="M 285.222656 164.738281 L 290.53125 158.421875 L 292.253906 159.871094 L 286.941406 166.183594 Z M 285.222656 164.738281 " clip-rule="nonzero"/></clipPath><clipPath id="393993d038"><path d="M 285.222656 164.738281 L 291.011719 157.847656 L 292.734375 159.296875 L 286.941406 166.183594 Z M 285.222656 164.738281 " clip-rule="nonzero"/></clipPath><clipPath id="1e68601de9"><path d="M 285.222656 164.738281 L 301.148438 145.792969 L 302.871094 147.242188 L 286.941406 166.183594 Z M 285.222656 164.738281 " clip-rule="nonzero"/></clipPath><clipPath id="8a68139b3c"><path d="M 280 154 L 285 154 L 285 163 L 280 163 Z M 280 154 " clip-rule="nonzero"/></clipPath><clipPath id="fb9abd95b8"><path d="M 280.226562 161.984375 L 282.710938 154.117188 L 284.855469 154.792969 L 282.371094 162.660156 Z M 280.226562 161.984375 " clip-rule="nonzero"/></clipPath><clipPath id="2db7e58a3d"><path d="M 280.226562 161.984375 L 282.933594 153.402344 L 285.082031 154.078125 L 282.371094 162.660156 Z M 280.226562 161.984375 " clip-rule="nonzero"/></clipPath><clipPath id="63b2863c19"><path d="M 280.226562 161.984375 L 287.679688 138.382812 L 289.824219 139.058594 L 282.371094 162.660156 Z M 280.226562 161.984375 " clip-rule="nonzero"/></clipPath><clipPath id="8f4114e28c"><path d="M 273.980469 152.484375 L 276.230469 152.484375 L 276.230469 160.734375 L 273.980469 160.734375 Z M 273.980469 152.484375 " clip-rule="nonzero"/></clipPath><clipPath id="36acca78a0"><path d="M 264 153 L 269 153 L 269 163 L 264 163 Z M 264 153 " clip-rule="nonzero"/></clipPath><clipPath id="0200ea7705"><path d="M 266.875 162.140625 L 264.023438 154.398438 L 266.136719 153.621094 L 268.984375 161.363281 Z M 266.875 162.140625 " clip-rule="nonzero"/></clipPath><clipPath id="40d7904096"><path d="M 266.875 162.140625 L 263.765625 153.695312 L 265.878906 152.917969 L 268.984375 161.363281 Z M 266.875 162.140625 " clip-rule="nonzero"/></clipPath><clipPath id="2a7af1de76"><path d="M 266.875 162.140625 L 258.328125 138.914062 L 260.4375 138.136719 L 268.984375 161.363281 Z M 266.875 162.140625 " clip-rule="nonzero"/></clipPath><clipPath id="0ca8380f2a"><path d="M 256 156 L 264 156 L 264 165 L 256 165 Z M 256 156 " clip-rule="nonzero"/></clipPath><clipPath id="90ad7ffd5f"><path d="M 261.449219 164.648438 L 256.226562 158.261719 L 257.96875 156.839844 L 263.1875 163.226562 Z M 261.449219 164.648438 " clip-rule="nonzero"/></clipPath><clipPath id="83dac0a4d6"><path d="M 261.449219 164.648438 L 255.75 157.683594 L 257.492188 156.257812 L 263.1875 163.226562 Z M 261.449219 164.648438 " clip-rule="nonzero"/></clipPath><clipPath id="0af0b1dbb5"><path d="M 261.449219 164.648438 L 245.78125 145.488281 L 247.523438 144.066406 L 263.1875 163.226562 Z M 261.449219 164.648438 " clip-rule="nonzero"/></clipPath></defs><rect x="-37.5" width="450" fill="#ffffff" y="-37.499999" height="449.999989" fill-opacity="1"/><rect x="-37.5" width="450" fill="#ffffff" y="-37.499999" height="449.999989" fill-opacity="1"/><g clip-path="url(#ea7ff65b76)"><path fill="#000000" d="M 35.144531 54.679688 L 203.515625 54.679688 C 210.902344 54.679688 216.859375 60.578125 216.859375 68 L 216.859375 306.855469 C 216.859375 314.230469 210.949219 320.179688 203.515625 320.179688 L 35.144531 320.179688 C 27.757812 320.179688 21.800781 314.277344 21.800781 306.855469 L 21.800781 68 C 21.800781 60.625 27.710938 54.679688 35.144531 54.679688 Z M 30.667969 284.777344 L 207.992188 284.777344 L 207.992188 81.226562 L 30.667969 81.226562 Z M 119.332031 72.378906 C 121.777344 72.378906 123.761719 70.394531 123.761719 67.953125 C 123.761719 65.511719 121.777344 63.527344 119.332031 63.527344 C 116.882812 63.527344 114.898438 65.511719 114.898438 67.953125 C 114.898438 70.394531 116.882812 72.378906 119.332031 72.378906 Z M 119.332031 311.328125 C 124.226562 311.328125 128.195312 307.363281 128.195312 302.476562 C 128.195312 297.59375 124.226562 293.628906 119.332031 293.628906 C 114.433594 293.628906 110.464844 297.59375 110.464844 302.476562 C 110.464844 307.363281 114.433594 311.328125 119.332031 311.328125 Z M 119.332031 311.328125 " fill-opacity="1" fill-rule="evenodd"/></g><g fill="#000000" fill-opacity="1"><g transform="translate(39.754529, 200.307958)"><g><path d="M 3.828125 -40.359375 L 3.828125 0 L 7.554688 0 L 7.554688 -18.9375 L 22.921875 -18.9375 L 22.921875 -22.25 L 7.554688 -22.25 L 7.554688 -36.996094 L 25.507812 -36.996094 L 25.507812 -40.359375 Z M 3.828125 -40.359375 "/></g></g></g><g fill="#000000" fill-opacity="1"><g transform="translate(66.295384, 200.307958)"><g><path d="M 7.554688 -16.402344 L 15.003906 -16.402344 C 15.625 -16.402344 16.246094 -16.402344 16.867188 -16.453125 L 23.285156 0 L 27.371094 0 L 20.386719 -17.179688 C 24.214844 -18.417969 27.371094 -21.421875 27.371094 -27.835938 L 27.371094 -28.871094 C 27.371094 -38.183594 20.746094 -40.359375 15.003906 -40.359375 L 3.828125 -40.359375 L 3.828125 0 L 7.554688 0 Z M 7.554688 -19.765625 L 7.554688 -36.996094 L 15.109375 -36.996094 C 18.574219 -36.996094 23.542969 -35.699219 23.542969 -28.769531 L 23.542969 -27.992188 C 23.542969 -21.058594 18.574219 -19.765625 15.109375 -19.765625 Z M 7.554688 -19.765625 "/></g></g></g><g fill="#000000" fill-opacity="1"><g transform="translate(96.514466, 200.307958)"><g/></g></g><g fill="#000000" fill-opacity="1"><g transform="translate(106.86178, 200.307958)"><g/></g></g><g fill="#000000" fill-opacity="1"><g transform="translate(117.209095, 200.307958)"><g/></g></g><g fill="#000000" fill-opacity="1"><g transform="translate(127.556409, 200.307958)"><g/></g></g><g fill="#000000" fill-opacity="1"><g transform="translate(137.908326, 200.307958)"><g><path d="M 30.269531 -40.359375 L 26.75 -40.359375 L 26.75 -15.675781 L 26.90625 -6.3125 L 7.863281 -40.359375 L 3.828125 -40.359375 L 3.828125 0 L 7.347656 0 L 7.347656 -24.679688 L 7.140625 -34.046875 L 26.230469 0 L 30.269531 0 Z M 30.269531 -40.359375 "/></g></g></g><g fill="#000000" fill-opacity="1"><g transform="translate(172.002718, 200.307958)"><g><path d="M 15.160156 -36.996094 L 25.457031 -36.996094 L 25.457031 -40.359375 L 1.191406 -40.359375 L 1.191406 -36.996094 L 11.433594 -36.996094 L 11.433594 0 L 15.160156 0 Z M 15.160156 -36.996094 "/></g></g></g><g fill="#000000" fill-opacity="1"><g transform="translate(198.647547, 200.307958)"><g/></g></g><g fill="#000000" fill-opacity="1"><g transform="translate(217.324135, 201.086196)"><g><path d="M 13.042969 -14.5625 L 15.921875 -14.5625 L 21.464844 0 L 32.605469 0 L 26.085938 -15.976562 C 29.835938 -17.660156 32.605469 -21.03125 32.605469 -27.933594 L 32.605469 -29.019531 C 32.605469 -40.757812 24.507812 -42.390625 17.335938 -42.390625 L 2.71875 -42.390625 L 2.71875 0 L 13.042969 0 Z M 13.042969 -23.476562 L 13.042969 -33.476562 L 17.769531 -33.476562 C 19.78125 -33.476562 22.171875 -32.714844 22.171875 -28.695312 L 22.171875 -28.257812 C 22.171875 -24.238281 19.78125 -23.476562 17.769531 -23.476562 Z M 13.042969 -23.476562 "/></g></g></g><g fill="#000000" fill-opacity="1"><g transform="translate(251.835544, 201.086196)"><g/></g></g><g fill="#000000" fill-opacity="1"><g transform="translate(262.70452, 201.086196)"><g/></g></g><g fill="#000000" fill-opacity="1"><g transform="translate(273.573497, 201.086196)"><g/></g></g><g fill="#000000" fill-opacity="1"><g transform="translate(284.442474, 201.086196)"><g/></g></g><g fill="#000000" fill-opacity="1"><g transform="translate(295.317495, 201.086196)"><g><path d="M 31.085938 0 L 44.238281 0 L 50.976562 -42.390625 L 40.214844 -42.390625 L 36.953125 -14.238281 L 32.171875 -42.390625 L 19.457031 -42.390625 L 14.671875 -14.238281 L 11.414062 -42.390625 L 0.652344 -42.390625 L 7.390625 0 L 20.488281 0 L 25.8125 -30.542969 Z M 31.085938 0 "/></g></g></g><g clip-path="url(#316a1223d3)"><path fill="#ffffff" d="M 135.828125 181.101562 C 135.828125 192.265625 126.796875 201.316406 115.652344 201.316406 C 104.507812 201.316406 95.476562 192.265625 95.476562 181.101562 C 95.476562 169.9375 104.507812 160.886719 115.652344 160.886719 C 126.796875 160.886719 135.828125 169.9375 135.828125 181.101562 " fill-opacity="1" fill-rule="nonzero"/></g><g clip-path="url(#ddb6fa67ef)"><path fill="#000000" d="M 115.652344 161.289062 C 104.75 161.289062 95.878906 170.175781 95.878906 181.101562 C 95.878906 192.027344 104.75 200.914062 115.652344 200.914062 C 126.554688 200.914062 135.425781 192.027344 135.425781 181.101562 C 135.425781 170.175781 126.554688 161.289062 115.652344 161.289062 Z M 115.652344 201.71875 C 104.304688 201.71875 95.074219 192.472656 95.074219 181.101562 C 95.074219 169.730469 104.304688 160.484375 115.652344 160.484375 C 127 160.484375 136.230469 169.730469 136.230469 181.101562 C 136.230469 192.472656 127 201.71875 115.652344 201.71875 " fill-opacity="1" fill-rule="nonzero"/></g><path fill="#000000" d="M 128.449219 181.101562 C 128.449219 188.183594 122.71875 193.921875 115.652344 193.921875 C 108.585938 193.921875 102.855469 188.183594 102.855469 181.101562 C 102.855469 174.019531 108.585938 168.28125 115.652344 168.28125 C 122.71875 168.28125 128.449219 174.019531 128.449219 181.101562 " fill-opacity="1" fill-rule="nonzero"/><path fill="#ffffff" d="M 123.527344 176.664062 C 123.527344 178.570312 121.984375 180.117188 120.082031 180.117188 C 118.179688 180.117188 116.636719 178.570312 116.636719 176.664062 C 116.636719 174.757812 118.179688 173.210938 120.082031 173.210938 C 121.984375 173.210938 123.527344 174.757812 123.527344 176.664062 " fill-opacity="1" fill-rule="nonzero"/><g clip-path="url(#e6f0f23a01)"><g clip-path="url(#6f904f5612)"><g clip-path="url(#049e53bd92)"><g clip-path="url(#3f0f867814)"><path fill="#000000" d="M 127.902344 164.742188 L 143.832031 145.796875 L 145.542969 147.238281 L 129.617188 166.179688 Z M 127.902344 164.742188 " fill-opacity="1" fill-rule="nonzero"/></g></g></g></g><g clip-path="url(#f3c253b73c)"><g clip-path="url(#e07c230423)"><g clip-path="url(#5c57cc86d8)"><g clip-path="url(#07274c02fe)"><path fill="#000000" d="M 122.507812 161.984375 L 129.960938 138.382812 L 132.09375 139.058594 L 124.640625 162.660156 Z M 122.507812 161.984375 " fill-opacity="1" fill-rule="nonzero"/></g></g></g></g><g clip-path="url(#bdec7f98ae)"><path fill="#000000" d="M 116.644531 161.085938 L 116.644531 136.335938 L 118.878906 136.335938 L 118.878906 161.085938 Z M 116.644531 161.085938 " fill-opacity="1" fill-rule="nonzero"/></g><g clip-path="url(#67b595b9e0)"><g clip-path="url(#0d595ebfc3)"><g clip-path="url(#abb900dd4b)"><g clip-path="url(#698da21829)"><path fill="#000000" d="M 109.917969 162.136719 L 101.367188 138.910156 L 103.46875 138.136719 L 112.015625 161.367188 Z M 109.917969 162.136719 " fill-opacity="1" fill-rule="nonzero"/></g></g></g></g><g clip-path="url(#070bd89e78)"><g clip-path="url(#3bf94beca6)"><g clip-path="url(#297c770a83)"><g clip-path="url(#6f4b67399c)"><path fill="#000000" d="M 104.488281 164.996094 L 88.820312 145.835938 L 90.550781 144.417969 L 106.21875 163.578125 Z M 104.488281 164.996094 " fill-opacity="1" fill-rule="nonzero"/></g></g></g></g><g clip-path="url(#095828550a)"><path fill="#ffffff" d="M 293.132812 181.101562 C 293.132812 192.265625 284.101562 201.316406 272.957031 201.316406 C 261.8125 201.316406 252.78125 192.265625 252.78125 181.101562 C 252.78125 169.9375 261.8125 160.886719 272.957031 160.886719 C 284.101562 160.886719 293.132812 169.9375 293.132812 181.101562 " fill-opacity="1" fill-rule="nonzero"/></g><g clip-path="url(#dea3b6fdea)"><path fill="#000000" d="M 272.957031 161.289062 C 262.054688 161.289062 253.183594 170.175781 253.183594 181.101562 C 253.183594 192.027344 262.054688 200.914062 272.957031 200.914062 C 283.859375 200.914062 292.730469 192.027344 292.730469 181.101562 C 292.730469 170.175781 283.859375 161.289062 272.957031 161.289062 Z M 272.957031 201.71875 C 261.609375 201.71875 252.378906 192.472656 252.378906 181.101562 C 252.378906 169.730469 261.609375 160.484375 272.957031 160.484375 C 284.304688 160.484375 293.535156 169.730469 293.535156 181.101562 C 293.535156 192.472656 284.304688 201.71875 272.957031 201.71875 " fill-opacity="1" fill-rule="nonzero"/></g><path fill="#000000" d="M 285.753906 181.101562 C 285.753906 188.183594 280.023438 193.921875 272.957031 193.921875 C 265.890625 193.921875 260.160156 188.183594 260.160156 181.101562 C 260.160156 174.019531 265.890625 168.28125 272.957031 168.28125 C 280.023438 168.28125 285.753906 174.019531 285.753906 181.101562 " fill-opacity="1" fill-rule="nonzero"/><path fill="#ffffff" d="M 280.832031 176.664062 C 280.832031 178.570312 279.289062 180.117188 277.386719 180.117188 C 275.484375 180.117188 273.941406 178.570312 273.941406 176.664062 C 273.941406 174.757812 275.484375 173.210938 277.386719 173.210938 C 279.289062 173.210938 280.832031 174.757812 280.832031 176.664062 " fill-opacity="1" fill-rule="nonzero"/><g clip-path="url(#0e7067630f)"><g clip-path="url(#55727b6a32)"><g clip-path="url(#393993d038)"><g clip-path="url(#1e68601de9)"><path fill="#000000" d="M 285.226562 164.742188 L 301.152344 145.796875 L 302.867188 147.238281 L 286.9375 166.179688 Z M 285.226562 164.742188 " fill-opacity="1" fill-rule="nonzero"/></g></g></g></g><g clip-path="url(#8a68139b3c)"><g clip-path="url(#fb9abd95b8)"><g clip-path="url(#2db7e58a3d)"><g clip-path="url(#63b2863c19)"><path fill="#000000" d="M 280.230469 161.984375 L 287.683594 138.382812 L 289.816406 139.058594 L 282.363281 162.660156 Z M 280.230469 161.984375 " fill-opacity="1" fill-rule="nonzero"/></g></g></g></g><g clip-path="url(#8f4114e28c)"><path fill="#000000" d="M 273.988281 160.734375 L 273.988281 135.984375 L 276.222656 135.984375 L 276.222656 160.734375 Z M 273.988281 160.734375 " fill-opacity="1" fill-rule="nonzero"/></g><g clip-path="url(#36acca78a0)"><g clip-path="url(#0200ea7705)"><g clip-path="url(#40d7904096)"><g clip-path="url(#2a7af1de76)"><path fill="#000000" d="M 266.878906 162.136719 L 258.332031 138.910156 L 260.433594 138.136719 L 268.980469 161.367188 Z M 266.878906 162.136719 " fill-opacity="1" fill-rule="nonzero"/></g></g></g></g><g clip-path="url(#0ca8380f2a)"><g clip-path="url(#90ad7ffd5f)"><g clip-path="url(#83dac0a4d6)"><g clip-path="url(#0af0b1dbb5)"><path fill="#000000" d="M 261.453125 164.644531 L 245.785156 145.484375 L 247.515625 144.070312 L 263.183594 163.230469 Z M 261.453125 164.644531 " fill-opacity="1" fill-rule="nonzero"/></g></g></g></g></svg>